<?xml version="1.0" encoding="UTF-8"?>
<!DOCTYPE svg PUBLIC "-//W3C//DTD SVG 1.1//EN" "http://www.w3.org/Graphics/SVG/1.1/DTD/svg11.dtd">
<!-- Creator: CorelDRAW 2021 (64-Bit) -->
<svg xmlns="http://www.w3.org/2000/svg" xml:space="preserve" width="3536px" height="492px" version="1.1" style="shape-rendering:geometricPrecision; text-rendering:geometricPrecision; image-rendering:optimizeQuality; fill-rule:evenodd; clip-rule:evenodd"
viewBox="0 0 1235.673 171.954"
 xmlns:xlink="http://www.w3.org/1999/xlink"
 xmlns:xodm="http://www.corel.com/coreldraw/odm/2003">
 <defs>
  <style type="text/css">
   <![CDATA[
    .fil0 {fill:url(#id0);fill-rule:nonzero}
   ]]>
  </style>
  <linearGradient id="id0" gradientUnits="userSpaceOnUse" x1="762.345" y1="-181.052" x2="473.328" y2="353.006">
   <stop offset="0" style="stop-opacity:1; stop-color:#B5A8E0"/>
   <stop offset="0.129412" style="stop-opacity:1; stop-color:#D0C6EF"/>
   <stop offset="0.239216" style="stop-opacity:1; stop-color:#ECE5FF"/>
   <stop offset="0.384314" style="stop-opacity:1; stop-color:#E0D9F3"/>
   <stop offset="0.490196" style="stop-opacity:1; stop-color:#D3CCE7"/>
   <stop offset="0.74902" style="stop-opacity:1; stop-color:#A296C8"/>
   <stop offset="0.933333" style="stop-opacity:1; stop-color:#C8BCE3"/>
   <stop offset="1" style="stop-opacity:1; stop-color:#EEE3FF"/>
  </linearGradient>
 </defs>
 <g id="_23Layer_x0020_1">
  <metadata id="CorelCorpID_0Corel-Layer"/>
  <path class="fil0" d="M381.177 44.857c29.09,-24.198 62.578,-40.88 97.459,-44.485 19.848,-1.382 41.001,0.623 58.372,13.97 11.356,8.443 21.391,21.613 24.427,38.238 2.594,12.306 0.194,26.152 -6.188,36.004 -8.363,11.516 -20.523,17.345 -32.532,19.675 -14.347,2.125 -29.593,0.311 -42.312,-8.959 -5.876,-4.252 -10.345,-11.596 -11.987,-19.916 -1.608,-10.652 2.307,-21.669 8.824,-28.401 13.039,-12.739 32.298,-14.051 46.387,-3.294 4.739,3.552 8.856,10.013 8.074,17.357 -0.707,6.438 -5.672,10.271 -10.217,11.898 -9.029,3.402 -18.947,-0.636 -25.758,-8.496 -1.886,7.412 2.501,14.526 7.839,16.979 11.987,6.016 27.943,2.33 35.3,-11.884 5.102,-9.595 1.544,-22.56 -4.87,-29.661 -15.269,-17.086 -39.17,-18.576 -56.646,-6.096 -7.614,5.852 -14.475,14.429 -17.124,25.433 -3.913,14.144 0.299,30.812 9.394,40.202 8.426,9.013 19.288,13.428 30.065,15.393 15.065,2.601 30.912,0.988 44.821,-7.208 7.343,-4.606 14.109,-11.017 18.848,-19.567 4.827,-7.358 5.781,-17.371 10.327,-24.917 8.771,-15.721 27.352,-19.567 40.402,-10.599 5.748,3.7 11.012,9.813 12.652,17.954 1.653,7.643 -1.436,15.895 -6.432,20.341 -6.424,5.594 -15.259,6.896 -22.314,2.437 -2.487,-1.774 -4.964,-5.148 -4.106,-9.065 0.824,-3.793 3.998,-5.407 6.422,-7.248 -6.08,-1.925 -12.459,4.66 -12.459,12.467 -0.225,6.625 4.352,11.543 8.877,13.632 10.39,4.281 22.785,1.339 30.452,-8.821 2.67,-3.877 6.016,-6.816 9.137,-10.071 8.599,-9.484 21.079,-13.143 32.092,-9.32 10.305,3.7 18.539,15.527 19.214,29.212 8.827,-12.138 19.794,-22.613 32.791,-26.095 9.426,-2.591 19.707,-3.036 28.693,1.962 3.86,2.223 7.603,5.788 9.071,11.031 1.759,6.247 -0.866,13.685 -5.426,16.789 -4.707,3.28 -10.7,3.334 -15.59,0.662 -3.065,-1.707 -4.342,-7.207 -1.95,-10.391 1.704,-2.845 4.695,-2.711 7.227,-2.845 -2.885,-5.327 -8.75,-2.481 -11.484,1.516 -4.299,5.584 -3.142,15.731 2.196,19.621 7.058,5.34 16.343,4.121 23.302,-0.894 7.773,-5.215 12.48,-15.001 19.323,-21.693 8.491,-8.429 19.869,-13.428 30.632,-10.204 4.975,1.681 10.08,5.313 12.202,11.53 1.417,4.338 -0.599,9.229 -3.677,11.399 -4.609,3.184 -10.475,3.033 -15.087,-0.071 -1.211,-0.786 -3.335,-2.032 -4.18,0.04 -2.114,3.077 -0.236,7.643 2.358,9.12 8.641,5.597 21.145,3.13 26.441,-7.777 3.571,-7.968 1.695,-18.172 -3.343,-24.418 1.79,-5.079 5.327,-8.778 8.275,-12.819 15.27,-19.795 33.509,-35.824 53.227,-47.721 19.27,-12.116 39.941,-21.275 61.378,-24.579 18.226,-2.766 37.162,-2.548 54.758,4.727 15.537,6.899 30.42,19.594 37.917,38.646 4.684,11.382 4.729,25.73 -0.44,36.868 -3.806,8.728 -10.615,14.579 -17.704,18.442 -15.977,8.564 -34.417,8.537 -50.728,1.423 -6.154,-2.547 -11.882,-7.006 -16.02,-13.334 -4.31,-6.558 -6.294,-15.771 -4.278,-24.05 2.231,-10.394 9.479,-17.846 17.286,-21.301 12.374,-5.447 26.976,-4.104 37.861,5.544 3.998,3.411 7.196,9.333 6.668,15.647 -0.665,6.233 -5.232,10.381 -9.714,12.048 -9.134,3.86 -19.032,-1.302 -25.959,-8.945 -1.221,4.664 -0.366,10.043 2.864,13.05 10.978,10.907 28.703,8.915 37.935,-4.336 4.075,-5.868 5.275,-14.499 2.808,-21.706 -3.944,-11.329 -12.737,-18.714 -21.828,-22.306 -10.306,-4.308 -21.596,-3.997 -31.954,-0.188 -9.532,3.455 -18.346,11.356 -22.807,22.751 -4.792,11.366 -4.021,25.949 1.725,36.557 5.439,10.623 14.456,17.278 23.654,21.53 17.617,7.358 37.316,7.371 54.623,-1.42 9.457,-4.61 17.606,-13.307 22.73,-24.351 4.837,-9.756 8.697,-21.275 17.07,-27.1 12.579,-9.296 30.829,-5.242 38.71,10.813 5.457,10.556 1.425,26.082 -7.473,31.369 -3.905,3.129 -8.687,3.156 -13.071,2.058 2.4,-3.984 4.975,-9.239 3.086,-14.348 -2.798,-5.788 -8.652,-7.208 -13.511,-5.326 -1.027,1.342 -1.918,2.845 -2.411,4.62 0.268,-0.623 0.803,-1.882 1.074,-2.518 2.442,0.338 5.563,-0.87 7.473,1.748 3.044,3.672 2.379,10.582 -0.774,13.846 -2.164,2.33 -4.652,4.108 -6.991,6.113 7.73,7.71 19.13,6.585 27.342,0.65 7.293,-5.069 11.248,-14.931 18.038,-20.813 8.083,-7.847 19.847,-10.324 29.024,-4.091 3.905,2.588 6.628,7.382 7.582,12.805 -1.523,3.886 -3.24,7.981 -2.832,12.477 0.098,6.598 4.074,11.884 8.398,14.921 8.275,5.487 18.946,4.851 26.751,-1.654 2.938,-2.33 4.429,-6.993 2.445,-10.894 -4.395,2.993 -8.888,6.274 -13.982,6.679 -5.383,0.569 -11.344,-1.192 -15.087,-6.394 -4.138,-5.895 -2.541,-15.583 2.079,-20.314 5.63,-6.287 13.426,-7.412 20.6,-8.426 16.801,-2.29 34.868,2.708 47.971,16.705 7.026,7.495 12.032,19.229 10.488,31.087 -0.795,6.95 -4.504,12.668 -8.912,16.638 -9.863,9.648 -22.697,11.734 -34.695,13.592 -31.782,3.17 -63.694,3.304 -95.529,5.188 -25.005,1.072 -50,-0.488 -74.973,-1.965 -18.324,-1.058 -36.574,1.557 -54.835,2.886 -41.035,3.565 -82.166,0.053 -123.074,-4.349 -12.941,-1.804 -25.818,1.49 -38.728,2.223 -21.799,0.988 -43.599,-0.285 -65.399,-0.341 -10.324,-0.446 -20.671,-1.815 -30.987,-0.486 -22.838,2.832 -45.722,5.38 -68.679,5.581 -28.595,0.204 -57.161,-1.882 -85.716,-3.482 -27.268,-0.746 -54.437,2.913 -81.663,3.917 -39.951,2.655 -79.98,-0.191 -119.834,-3.903 -25.723,-2.113 -51.534,-3.726 -77.32,-2.236 -50.816,1.098 -101.489,7.793 -152.337,7.033 -30.828,-0.137 -61.688,-0.974 -92.407,-4.472 -6.573,-0.974 -13.747,-1.681 -19.183,-6.977 -2.969,-2.684 -4.707,-8.051 -2.765,-12.289 2.917,-7.412 9.51,-10.867 15.558,-12.561 -11.547,-10.555 -20.544,-26.179 -23.098,-44.119 -3.033,-19.745 2.586,-40.598 13.577,-54.893 12.03,-15.312 28.425,-24.374 45.173,-27.548 21.585,-4.104 44.509,-0.338 63.617,13.471 11.269,8.169 21.853,19.199 27.803,34.076 5.073,12.561 5.875,28.633 -0.384,40.759 -6.2,13.076 -17.596,20.354 -28.834,24.338 -16.512,5.42 -34.494,4.224 -50.341,-3.837 -8.398,-4.255 -16.258,-12.005 -19.453,-23.009 -2.636,-8.359 -0.996,-18.318 3.465,-25.175 5.855,-9.443 15.15,-14.254 24.306,-16.082 9.362,-1.004 19.182,-0.542 27.837,4.553 5.447,3.033 10.766,7.696 13.349,14.7 2.241,5.718 -0.387,12.711 -4.578,15.65 -7.367,5.353 -16.737,5.976 -24.663,2.21 -4.17,-1.734 -7.463,-5.487 -10.904,-8.768 -0.697,4.148 -0.451,8.835 2.047,11.978 6.629,9.119 17.318,10.475 26.497,8.848 7.206,-1.543 14.539,-5.594 18.968,-13.21 4.127,-7.861 3.494,-18.794 -0.943,-26.246 -7.047,-12.102 -18.69,-18.51 -30.206,-20.502 -13.939,-2.956 -28.791,0.516 -40.651,10.365 -6.122,5.828 -11.709,13.334 -13.95,22.791 -3.484,12.698 -0.268,27.398 7.015,36.939 9.714,13.25 23.866,19.336 37.647,22.142 15.879,2.748 32.669,1.218 47.306,-7.549 11.441,-6.652 21.564,-18.035 26.496,-32.898 2.713,-7.265 3.357,-15.651 6.949,-22.413 4.483,-7.292 11.987,-10.693 19.127,-10.84 9.534,-0.556 19.301,4.174 25.757,13.156 3.034,4.58 4.899,10.693 4.406,16.722 -2.154,15.447 -17.789,24.579 -28.552,16.789 -2.994,-1.912 -4.795,-6.87 -3.015,-10.76 2.069,-3.89 6.08,-3.753 9.2,-5.38 -5.735,-3.739 -14.133,-1.044 -16.427,7.034 -2.231,7.385 1.491,15.909 7.314,18.332 10.883,5.082 24.619,0.814 31.448,-11.409 4.31,-7.1 9.158,-14.174 15.826,-17.762 8.954,-5.354 20.491,-4.309 27.943,4.321 5.781,7.101 7.378,17.643 8.268,27.358 6.165,-12.588 15.151,-23.659 26.55,-28.145 7.42,-3.197 16.147,-4.757 23.236,0.503 3.483,2.25 5.971,7.247 5.007,12.289 -2.337,10.435 -13.448,16.38 -20.77,10.338 -2.199,-1.597 -0.911,-4.998 -0.204,-7.181 -5.619,-0.76 -8.867,8.701 -4.75,13.401 8.117,8.902 22.131,4.945 27.215,-6.749 1.211,-2.735 1.137,-6.217 2.84,-8.63 14.872,-23.605 32.96,-43.876 52.797,-60.611l0 0z"/>
 </g>
</svg>
