<?xml version="1.0" encoding="UTF-8"?>
<!DOCTYPE svg PUBLIC "-//W3C//DTD SVG 1.1//EN" "http://www.w3.org/Graphics/SVG/1.1/DTD/svg11.dtd">
<!-- Creator: CorelDRAW 2021 (64-Bit) -->
<svg xmlns="http://www.w3.org/2000/svg" xml:space="preserve" width="1259px" height="545px" version="1.1" style="shape-rendering:geometricPrecision; text-rendering:geometricPrecision; image-rendering:optimizeQuality; fill-rule:evenodd; clip-rule:evenodd"
viewBox="0 0 723.413 313.473"
 xmlns:xlink="http://www.w3.org/1999/xlink"
 xmlns:xodm="http://www.corel.com/coreldraw/odm/2003">
 <defs>
  <style type="text/css">
   <![CDATA[
    .fil0 {fill:#DBE8EF;fill-rule:nonzero}
    .fil1 {fill:#F9FBFB;fill-rule:nonzero}
   ]]>
  </style>
 </defs>
 <g id="OBJECTS">
  <metadata id="CorelCorpID_0Corel-Layer"/>
  <g id="_1455100908832">
   <path class="fil0" d="M723.168 248.17c-1.133,9.169 -6.16,17.453 -13.807,22.657 -7.647,5.204 -17.205,6.833 -26.162,4.496 -7.435,-1.947 -13.878,-6.514 -18.197,-12.745 -3.682,4.426 -8.957,7.47 -14.976,8.391 -8.992,1.345 -17.772,-2.337 -23.082,-9.276 -6.762,10.586 -18.339,17.665 -31.509,18.48 -13.984,0.886 -27.047,-5.523 -35.013,-16.285 -10.373,11.294 -24.958,18.48 -41.032,19.365 -20.497,1.133 -39.686,-8.213 -51.51,-24.109 -5.736,7.86 -13.736,14.09 -23.295,17.702 -16.568,6.266 -34.836,3.434 -48.573,-6.762 -8.532,19.329 -25.277,34.553 -46.624,40.606 -28.322,8.073 -58.343,-1.841 -76.433,-24.215 -7.471,6.372 -16.569,10.798 -26.517,12.71 -14.02,2.69 -28.358,0.071 -40.395,-7.116 -11.718,9.24 -26.446,14.125 -41.562,13.594 -14.55,-0.495 -28.358,-5.948 -39.226,-15.294 -12.958,7.683 -28.252,10.727 -43.368,8.497 -12.144,-1.806 -23.402,-6.904 -32.641,-14.586 -8.604,5.7 -19.649,6.939 -29.491,2.938 -11.895,-4.85 -19.72,-16.427 -19.755,-29.313 0,-1.133 0.071,-2.266 0.213,-3.363 3.788,7.895 11.577,13.417 20.71,14.126 7.01,0.531 13.666,-1.912 18.622,-6.338 9.912,6.266 22.375,7.648 33.668,3.363 12.178,-4.637 21.029,-15.152 23.613,-27.684 9.772,6.266 22.304,7.505 33.455,2.655 13.56,-5.983 21.879,-19.648 21.171,-34.199 8.993,0.991 18.162,-0.85 26.163,-5.275 8.674,-4.815 15.471,-12.391 19.294,-21.419 8.001,23.189 30.871,38.66 56.078,36.606 18.374,-1.486 34.022,-11.966 42.767,-26.905 6.372,8.815 16.214,14.904 27.613,16.32 12.143,1.523 23.896,-2.513 32.429,-10.444 10.16,19.011 31.473,30.022 53.387,26.623 14.798,-2.301 27.33,-10.762 35.119,-22.515 9.347,11.895 23.614,19.294 39.191,19.86 13.347,0.461 26.127,-4.177 35.934,-12.603 9.417,18.87 27.471,32.251 48.607,35.58 18.586,2.902 37.279,-2.266 51.582,-13.808 15.364,12.321 36.429,14.303 53.705,5.524 4.426,6.195 11.4,10.372 19.295,11.044 11.505,0.992 22.339,-5.628 26.728,-16.32 3.293,5.842 4.674,12.639 3.824,19.437z"/>
   <path class="fil1" d="M719.344 228.733c-4.389,10.692 -15.223,17.312 -26.728,16.32 -7.895,-0.672 -14.869,-4.849 -19.295,-11.044 -17.276,8.779 -38.341,6.797 -53.705,-5.524 -14.303,11.542 -32.996,16.71 -51.582,13.808 -21.136,-3.329 -39.19,-16.71 -48.607,-35.58 -9.807,8.426 -22.587,13.064 -35.934,12.603 -15.577,-0.566 -29.844,-7.965 -39.191,-19.86 -7.789,11.753 -20.321,20.214 -35.119,22.515 -21.914,3.399 -43.227,-7.612 -53.387,-26.623 -8.533,7.931 -20.286,11.967 -32.429,10.444 -11.399,-1.416 -21.241,-7.505 -27.613,-16.32 -8.745,14.939 -24.393,25.419 -42.767,26.905 -25.207,2.054 -48.077,-13.417 -56.078,-36.606 -3.823,9.028 -10.62,16.604 -19.294,21.419 -8.001,4.425 -17.17,6.266 -26.163,5.275 0.708,14.551 -7.611,28.216 -21.171,34.199 -11.151,4.85 -23.683,3.611 -33.455,-2.655 -2.584,12.532 -11.435,23.047 -23.613,27.684 -11.293,4.285 -23.756,2.903 -33.668,-3.363 -4.956,4.426 -11.612,6.869 -18.622,6.338 -9.133,-0.709 -16.922,-6.231 -20.71,-14.126 1.168,-11.471 8.567,-21.525 19.4,-26.021 5.559,-2.301 11.542,-2.938 17.241,-1.983 0.39,-4.071 1.842,-8.107 4.391,-11.612 6.478,-8.956 18.019,-12.179 28.003,-8.39 3.54,-5.842 8.461,-10.869 14.444,-14.551 9.276,-5.664 20.214,-7.576 30.658,-5.558 0.957,-7.045 4.426,-13.7 10.055,-18.622 3.292,-2.867 7.116,-4.92 11.116,-6.124 -0.743,-27.154 12.533,-53.281 35.828,-68.575 15.152,-9.948 32.783,-14.196 50.059,-12.78 0.177,-17.914 6.267,-35.438 17.595,-49.67 14.48,-18.232 36.111,-29.349 59.335,-30.553 23.259,-1.168 45.881,7.683 62.166,24.322 10.904,11.116 18.232,25.03 21.348,39.97 19.117,-3.753 39.226,-0.674 56.608,9.204 17.205,9.772 30.093,25.242 36.677,43.368 13.276,-6.053 28.748,-6.549 42.837,-0.744 14.233,5.878 24.853,17.349 29.916,31.155 21.206,-11.966 46.519,-15.47 70.664,-9.169 27.861,7.257 50.661,26.658 62.485,52.467 11.399,-4.284 24.675,-1.204 32.996,8.532 7.186,8.426 8.85,19.755 5.309,29.525z"/>
   <path class="fil0" d="M170.767 165.992c3.621,4.682 7.492,7.926 11.671,10.059 4.163,2.131 8.52,3.108 12.875,3.066 4.355,-0.068 8.683,-1.139 12.796,-3.36 4.126,-2.227 7.926,-5.544 11.455,-10.303 0.802,5.925 -1.737,12.315 -6.302,16.875 -4.55,4.601 -11.161,7.371 -17.832,7.406 -6.669,0.097 -13.333,-2.525 -17.981,-7.023 -4.66,-4.46 -7.338,-10.784 -6.682,-16.72z"/>
   <path class="fil0" d="M408.702 174.365c-3.748,9.153 -11.072,16.85 -19.935,22.053 -8.893,5.206 -19.429,7.881 -29.902,7.608 -10.476,-0.237 -20.869,-3.444 -29.488,-9.092 -8.594,-5.641 -15.52,-13.707 -18.787,-23.048 7.988,5.746 15.774,10.162 23.902,13.158 8.093,3.011 16.39,4.599 24.731,4.829 8.341,0.211 16.712,-0.957 24.95,-3.556 8.275,-2.578 16.276,-6.604 24.529,-11.952z"/>
   <path class="fil0" d="M467.333 166.229c9.001,11.073 18.647,19.503 29.348,25.339 10.581,5.936 22.029,9.122 33.577,9.96 11.554,0.679 23.304,-1.016 34.592,-5.457 11.335,-4.418 22.046,-11.456 32.432,-21.249 -2.58,14.155 -11.84,27.192 -24.373,35.879 -12.544,8.756 -28.461,13.055 -44.054,12.016 -15.579,-1.07 -30.807,-7.379 -42.057,-17.756 -11.301,-10.221 -18.728,-24.39 -19.465,-38.732z"/>
  </g>
 </g>
</svg>
