<?xml version="1.0" encoding="UTF-8"?>
<!DOCTYPE svg PUBLIC "-//W3C//DTD SVG 1.1//EN" "http://www.w3.org/Graphics/SVG/1.1/DTD/svg11.dtd">
<!-- Creator: CorelDRAW 2021 (64-Bit) -->
<svg xmlns="http://www.w3.org/2000/svg" xml:space="preserve" width="1800px" height="707px" version="1.1" style="shape-rendering:geometricPrecision; text-rendering:geometricPrecision; image-rendering:optimizeQuality; fill-rule:evenodd; clip-rule:evenodd"
viewBox="0 0 394.516 154.932"
 xmlns:xlink="http://www.w3.org/1999/xlink"
 xmlns:xodm="http://www.corel.com/coreldraw/odm/2003">
 <defs>
  <style type="text/css">
   <![CDATA[
    .fil0 {fill:url(#id0);fill-rule:nonzero}
   ]]>
  </style>
  <linearGradient id="id0" gradientUnits="userSpaceOnUse" x1="0" y1="77.466" x2="394.516" y2="77.466">
   <stop offset="0" style="stop-opacity:1; stop-color:#5D4F87"/>
   <stop offset="0.188235" style="stop-opacity:1; stop-color:#8176B4"/>
   <stop offset="0.568627" style="stop-opacity:1; stop-color:#AE9BEB"/>
   <stop offset="1" style="stop-opacity:1; stop-color:#564182"/>
  </linearGradient>
 </defs>
 <g id="Capa_x0020_1">
  <metadata id="CorelCorpID_0Corel-Layer"/>
  <path class="fil0" d="M93.655 16.774c19.215,-14.035 44.212,-19.339 67.6,-15.623 12.605,2.195 24.868,7.787 33.904,16.971 7.288,7.099 12.539,16.335 14.687,26.297 2.013,8.76 0.107,18.074 -4.339,25.791 3.503,-3.262 5.87,-7.477 8.614,-11.351 5.909,-8.106 14.616,-14.24 24.372,-16.724 8.747,-2.078 18.197,-2.067 26.632,1.289 6.505,2.455 12.504,6.917 15.677,13.228 2.331,4.426 2.82,10.044 0.459,14.552 -3.25,5.199 -9.001,8.153 -14.664,9.997 -5.452,1.837 -11.279,1.83 -16.966,1.601 -2.513,-0.26 -5.358,-0.576 -7.206,-2.496 -1.143,-1.071 -1.247,-2.902 -0.46,-4.198 1.679,-2.96 5.711,-4.039 8.807,-2.96 1.332,0.436 1.101,1.983 1.366,3.084 1.832,1.584 5.37,1.024 5.982,-1.525 0.707,-2.725 -1.49,-5.309 -4.063,-5.909 -4.933,-1.15 -10.555,-0.243 -14.445,3.149 -2.851,2.142 -4.234,6.292 -2.455,9.548 2.113,3.867 6.674,5.346 10.766,6.017 8.289,1.041 16.973,-0.048 24.448,-3.916 4.628,-2.402 8.578,-5.916 12.081,-9.73 4.568,-4.675 10.372,-8.349 16.849,-9.596 7.977,-1.595 16.588,-0.372 23.589,3.861 3.425,2.155 6.37,5.293 7.735,9.149 1.555,4.539 0.076,9.872 -3.509,13.034 -4.78,4.391 -11.638,5.363 -17.879,4.827 6.152,3.956 14.718,2.649 20.045,-2.124 2.455,-2.091 3.816,-5.217 6.523,-7.048 4.068,-3.031 9.932,-3.632 14.429,-1.212 1.872,0.954 2.962,2.889 3.185,4.944 -1.548,1.526 -2.507,3.721 -1.995,5.918 0.329,2.313 2.495,3.796 4.561,4.479 2.885,0.901 6.312,0.841 8.872,-0.889 1.349,-0.906 0.8,-2.703 0.013,-3.779 -1.908,0.758 -3.845,1.801 -5.965,1.512 -1.942,-0.164 -4.239,-1.554 -4.126,-3.749 0.101,-2.585 2.402,-4.462 4.674,-5.269 6.505,-2.244 13.741,-1.443 20.039,1.112 4.533,1.919 8.965,4.686 11.668,8.918 1.514,2.58 2.072,6.247 0.017,8.702 -24.265,31.287 -86.652,39.909 -129.862,40.213 -9.825,-0.318 -19.657,-0.348 -29.47,-0.883 -28.218,-0.212 -49.159,-0.022 -111.435,0.883 -18.22,0.758 -44.428,8.583 -62.672,8.036 -9.012,-0.307 -18.037,-0.212 -27.057,-0.4 -35.652,-1.918 -33.009,-42.207 -32.381,-68.378 0.152,-5.468 2.538,-10.702 6.123,-14.769 6.739,-7.824 16.547,-12.51 26.585,-14.365 8.541,-1.383 17.466,-1.265 25.743,1.454 5.994,2.067 11.269,5.841 15.701,10.32 2.06,2.102 4.309,4.056 6.87,5.546 -1.895,-2.273 -3.95,-4.439 -5.468,-6.999 -4.657,-7.348 -5.058,-16.802 -2.485,-24.961 3.714,-10.491 11.45,-19.044 20.286,-25.579l0 0zm47.88 2.514l0 0c-11.156,4.145 -21.559,11.002 -28.952,20.416 -5.676,7.352 -9.65,16.395 -9.521,25.813 -0.029,8.107 3.274,16.302 9.385,21.718 6.699,6.3 15.842,9.707 24.96,10.132 -6.97,-2.249 -13.751,-5.54 -18.937,-10.827 -8.089,-7.701 -11.356,-20.022 -8.142,-30.717 2.378,-8.507 7.995,-15.719 14.652,-21.353 7.565,-6.1 16.666,-10.426 26.338,-11.756 10.197,-1.543 21.105,-0.271 30.095,5.016 6.505,3.656 12.456,8.929 15.417,15.912 2.043,5.269 2.397,11.438 -0.112,16.618 -2.395,5.717 -7.67,9.672 -13.304,11.88 -6.264,2.349 -13.187,2.649 -19.744,1.597 -5.422,-1.019 -10.927,-3.581 -14.029,-8.325 -2.455,-3.585 -1.826,-8.66 0.841,-11.951 2.738,-3.614 7.123,-5.58 11.48,-6.416 5.429,-0.872 11.367,-0.189 15.954,3.031 2.078,1.401 3.385,4.074 2.567,6.558 -0.518,2.038 -2.562,3.143 -4.457,3.608 -4.138,1.185 -8.495,-0.282 -12.138,-2.266 -0.082,1.643 0.369,3.327 1.659,4.434 2.831,2.507 6.935,2.813 10.526,2.284 4.057,-0.66 8.282,-3.138 9.443,-7.319 1.072,-3.738 -0.843,-7.635 -3.603,-10.108 -4.314,-3.803 -10.208,-5.415 -15.883,-5.268 -6.823,-0.123 -13.775,2.437 -18.544,7.383 -3.32,3.438 -5.204,8.465 -4.209,13.228 0.713,4.103 3.238,7.711 6.505,10.224 4.221,3.569 9.678,5.299 15.047,6.211 10.838,1.602 22.771,-0.941 30.9,-8.6 4.87,-4.415 7.942,-10.737 8.302,-17.307 0.429,-8.938 -3.616,-17.785 -9.99,-23.925 -6.234,-6.481 -14.736,-10.291 -23.401,-12.239 -9.661,-1.866 -19.911,-1.332 -29.105,2.313l0 0.001zm-111.259 54.107l0 0c-3.131,2.537 -5.798,6.151 -5.94,10.325 -0.347,5.369 2.88,10.338 7.03,13.482 5.115,3.785 11.302,5.905 17.567,6.788 8.047,1.365 16.471,0.976 24.183,-1.815 6.359,-2.135 12.121,-6.334 15.371,-12.292 -0.03,-0.135 -0.088,-0.4 -0.118,-0.536 -4.951,4.635 -11.214,7.731 -17.855,9.025 -10.35,2.208 -21.499,1.584 -31.242,-2.72 -3.461,-1.748 -7.017,-4.032 -8.754,-7.635 -1.79,-3.585 -0.329,-8.124 2.696,-10.548 3.992,-3.35 9.354,-4.681 14.489,-4.593 4.773,0.054 9.748,1.36 13.386,4.58 1.677,1.49 3.061,4.027 1.795,6.205 -1.248,2.597 -4.35,3.427 -6.975,3.745 -3.998,0.258 -8.271,-0.672 -11.297,-3.445 -0.489,1.372 -0.46,2.951 0.571,4.074 2.731,3.262 7.346,4.021 11.378,3.68 4.252,-0.242 8.607,-2.201 10.945,-5.882 1.665,-2.507 1.561,-5.94 -0.005,-8.464 -2.451,-4.117 -6.788,-6.865 -11.351,-8.071 -8.647,-2.455 -18.521,-1.254 -25.874,4.097l0 0z"/>
 </g>
</svg>
