<?xml version="1.0" encoding="UTF-8"?>
<!DOCTYPE svg PUBLIC "-//W3C//DTD SVG 1.1//EN" "http://www.w3.org/Graphics/SVG/1.1/DTD/svg11.dtd">
<!-- Creator: CorelDRAW 2021 (64-Bit) -->
<svg xmlns="http://www.w3.org/2000/svg" xml:space="preserve" width="1318px" height="570px" version="1.1" style="shape-rendering:geometricPrecision; text-rendering:geometricPrecision; image-rendering:optimizeQuality; fill-rule:evenodd; clip-rule:evenodd"
viewBox="0 0 1473.991 637.725"
 xmlns:xlink="http://www.w3.org/1999/xlink"
 xmlns:xodm="http://www.corel.com/coreldraw/odm/2003">
 <defs>
  <style type="text/css">
   <![CDATA[
    .fil0 {fill:#DBE8EF;fill-rule:nonzero}
    .fil1 {fill:#F9FBFB;fill-rule:nonzero}
   ]]>
  </style>
 </defs>
 <g id="OBJECTS">
  <metadata id="CorelCorpID_0Corel-Layer"/>
  <g id="_1455259574752">
   <path class="fil0" d="M1469.788 469.953c-8.813,24.654 -30.438,42.558 -56.398,46.62 -15.495,2.411 -31.128,-0.344 -44.555,-7.506 -5.923,18.18 -21.348,32.504 -41.387,36.223 -24.93,4.476 -49.032,-8.952 -58.741,-31.264 -17.147,20.451 -41.594,34.225 -68.864,37.943 -32.917,4.544 -65.696,-6.197 -89.454,-28.302 -22.174,37.53 -59.152,65.42 -103.571,75.405 -53.849,12.189 -109.217,-4.132 -147.711,-41.387 -18.732,40.284 -56.33,70.172 -101.919,78.023 -53.713,9.227 -107.013,-13.774 -137.244,-57.433 -21.898,17.629 -50.89,25.617 -79.95,20.383 -35.396,-6.404 -63.838,-31.195 -75.751,-63.836 -12.188,8.332 -26.444,13.704 -41.73,15.358 -18.386,1.996 -36.567,-1.722 -52.337,-10.124 -31.952,34.707 -77.403,55.504 -126.089,55.78 -49.375,0.275 -95.652,-20.383 -128.087,-55.643 -18.593,9.159 -41.18,8.265 -59.36,-3.719 -18.731,-12.395 -28.509,-33.879 -26.58,-55.227 9.364,19.762 29.196,32.365 51.028,32.572 16.114,0.138 31.264,-6.542 41.937,-17.904 33.468,31.677 81.947,42.97 126.502,28.441 36.29,-11.845 64.525,-38.978 78.367,-73.065 12.395,20.797 34.018,35.397 59.084,38.426 28.027,3.443 55.229,-7.988 72.446,-29.13 22.794,43.384 73.615,65.489 121.818,51.096 43.109,-12.877 71.826,-51.372 74.098,-94.205 15.493,16.389 36.497,27.065 59.429,29.681 25.203,2.824 50.27,-4.269 70.034,-19.487 28.027,24.238 67.831,31.057 102.882,16.389 30.507,-12.741 51.924,-39.46 58.604,-70.449 18.041,31.885 51.165,53.232 88.833,55.711 36.773,2.343 71.549,-13.703 93.585,-41.731 7.368,21.416 25.962,37.255 48.617,40.837 17.217,2.754 34.433,-2.067 47.655,-12.534 13.979,18.8 37.394,28.578 60.943,24.929 12.465,-1.928 23.69,-7.507 32.642,-15.632 11.706,13.636 28.785,22.724 48.135,23.963 37.944,2.411 70.654,-26.237 73.342,-64.18 5.782,3.511 11.086,7.919 15.7,13.084 17.49,19.558 22.931,47.171 14.047,71.894z"/>
   <path class="fil1" d="M1440.041 384.975c-2.688,37.943 -35.398,66.591 -73.342,64.18 -19.35,-1.239 -36.429,-10.327 -48.135,-23.963 -8.952,8.125 -20.177,13.704 -32.642,15.632 -23.549,3.649 -46.964,-6.129 -60.943,-24.929 -13.222,10.467 -30.438,15.288 -47.655,12.534 -22.655,-3.582 -41.249,-19.421 -48.617,-40.837 -22.036,28.028 -56.812,44.074 -93.585,41.731 -37.668,-2.479 -70.792,-23.826 -88.833,-55.711 -6.68,30.989 -28.097,57.708 -58.604,70.449 -35.051,14.668 -74.855,7.849 -102.882,-16.389 -19.764,15.218 -44.831,22.311 -70.034,19.487 -22.932,-2.616 -43.936,-13.292 -59.429,-29.681 -2.272,42.833 -30.989,81.328 -74.098,94.205 -48.203,14.393 -99.024,-7.712 -121.818,-51.096 -17.217,21.142 -44.419,32.573 -72.446,29.13 -25.066,-3.029 -46.689,-17.629 -59.084,-38.426 -13.842,34.087 -42.077,61.22 -78.367,73.065 -44.555,14.529 -93.034,3.236 -126.502,-28.441 -10.673,11.362 -25.823,18.042 -41.937,17.904 -21.832,-0.207 -41.664,-12.81 -51.028,-32.572 -4.683,-1.721 -9.091,-4.271 -13.085,-7.507 -11.981,-9.847 -18.318,-25.067 -16.735,-40.56 1.586,-15.495 10.813,-29.13 24.586,-36.361 11.225,-5.922 24.309,-6.886 36.084,-3.029 5.233,-18.732 19.557,-34.432 39.251,-40.768 12.673,-4.131 25.826,-3.719 37.669,0.345 15.495,-39.597 47.998,-71.204 89.592,-84.978 36.704,-12.12 75.819,-9.02 109.287,7.231 6.266,-13.772 17.078,-25.48 31.264,-32.779 11.293,-5.784 23.62,-8.263 35.672,-7.506 7.505,-62.391 50.889,-116.309 113.142,-135.592 54.401,-16.803 111.901,-3.582 153.152,31.539 21.691,-65.42 77.746,-115.76 148.263,-128.294 68.312,-12.188 136.143,13.636 179.391,64.252 44.898,-27.065 102.675,-23.965 144.751,9.088 36.427,28.648 53.78,74.098 47.446,118.309 21.761,-6.543 45.863,-2.756 64.731,11.293 19.558,14.599 30.231,37.669 29.335,61.288 35.604,-12.12 75.956,-6.816 107.772,16.39 32.918,24.033 50.272,62.459 48.413,101.367z"/>
   <path class="fil0" d="M249.295 422.67c14.031,10.049 26.862,16.612 39.847,20.425 12.848,3.937 25.538,4.985 37.974,4.001 12.411,-1.198 24.7,-4.468 36.701,-10.507 12.073,-6.037 23.639,-14.658 35.74,-26.976 1.48,17.381 -6.28,35.256 -19.222,48.426 -12.95,13.264 -31.273,21.73 -50.241,23.349 -18.953,1.608 -38.47,-3.512 -53.482,-14.401 -15.029,-10.689 -25.721,-26.99 -27.317,-44.317z"/>
   <path class="fil0" d="M506.099 354.327c20.582,18.625 41.619,31.981 63.92,40.033 22.099,8.28 45.05,11.017 67.499,9.213 22.415,-2.113 44.502,-8.85 64.887,-20.726 20.487,-11.847 38.998,-28.549 56.065,-50.448 -0.771,27.976 -14.714,55.781 -36.242,76.19 -21.523,20.543 -50.852,33.518 -81.138,36.135 -30.268,2.552 -61.411,-5.071 -86.108,-21.691 -24.752,-16.307 -43.222,-41.35 -48.883,-68.706z"/>
   <path class="fil0" d="M888.151 348.596c9.803,8.464 19.593,14.434 29.876,18.008 10.184,3.677 20.661,4.857 30.911,4.035 10.232,-0.97 20.326,-3.975 29.745,-9.313 9.47,-5.326 18.122,-12.853 26.325,-22.884 -0.058,13.065 -6.43,26.146 -16.414,35.755 -9.987,9.673 -23.702,15.797 -37.872,17.016 -14.158,1.197 -28.73,-2.424 -40.214,-10.273 -11.503,-7.707 -20.006,-19.519 -22.357,-32.344z"/>
   <path class="fil0" d="M1257.215 399.32c9.803,8.464 19.593,14.433 29.876,18.006 10.184,3.679 20.658,4.858 30.91,4.037 10.233,-0.971 20.327,-3.975 29.746,-9.314 9.469,-5.325 18.122,-12.854 26.325,-22.883 -0.058,13.064 -6.43,26.144 -16.414,35.755 -9.988,9.672 -23.703,15.796 -37.872,17.016 -14.158,1.197 -28.73,-2.425 -40.214,-10.273 -11.503,-7.707 -20.006,-19.519 -22.357,-32.344z"/>
  </g>
 </g>
</svg>
