<?xml version="1.0" encoding="UTF-8"?>
<!DOCTYPE svg PUBLIC "-//W3C//DTD SVG 1.1//EN" "http://www.w3.org/Graphics/SVG/1.1/DTD/svg11.dtd">
<!-- Creator: CorelDRAW 2021 (64-Bit) -->
<svg xmlns="http://www.w3.org/2000/svg" xml:space="preserve" width="2230px" height="806px" version="1.1" style="shape-rendering:geometricPrecision; text-rendering:geometricPrecision; image-rendering:optimizeQuality; fill-rule:evenodd; clip-rule:evenodd"
viewBox="0 0 2981.402 1078.139"
 xmlns:xlink="http://www.w3.org/1999/xlink"
 xmlns:xodm="http://www.corel.com/coreldraw/odm/2003">
 <defs>
  <style type="text/css">
   <![CDATA[
    .fil0 {fill:#DBE8EF;fill-rule:nonzero}
    .fil1 {fill:#F9FBFB;fill-rule:nonzero}
   ]]>
  </style>
 </defs>
 <g id="OBJECTS">
  <metadata id="CorelCorpID_0Corel-Layer"/>
  <g id="_1455260546096">
   <path class="fil0" d="M2981.207 643.442c-2.963,53.69 -41.337,98.817 -93.874,110.509 -43.562,9.718 -88.111,-5.681 -116.52,-38.373 -15.483,14.658 -34.998,25.115 -56.821,29.398 -34.339,6.835 -69.336,-2.306 -95.687,-23.716 -28.574,33.02 -68.594,55.254 -113.144,61.512 -53.607,7.577 -107.134,-8.894 -146.907,-43.972 -15.07,15.975 -34.503,27.751 -56.573,33.515 -36.808,9.717 -75.676,1.153 -104.828,-22.152 -25.773,35.244 -65.135,59.455 -109.931,65.548 -34.832,4.694 -69.502,-1.975 -99.311,-18.032 -21.164,23.55 -49.327,40.597 -81.276,47.924 -41.587,9.636 -84.735,1.811 -119.898,-20.586 -27.091,49.739 -68.595,90.994 -120.062,117.674 -69.089,35.821 -149.377,41.914 -222.5,17.54 -36.234,55.748 -94.123,95.522 -161.483,108.203 -78.312,14.741 -157.941,-9.304 -214.762,-62.749 -76.416,60.032 -175.973,85.065 -273.472,66.372 -99.476,-19.103 -184.212,-81.523 -232.384,-168.563 -49.243,26.433 -105.897,38.126 -163.212,32.197 -69.334,-7.164 -132.496,-39.444 -178.689,-89.346 -21.657,23.058 -51.468,37.633 -83.995,39.855 -46.855,3.294 -91.734,-19.598 -116.602,-59.371 -19.27,-30.88 -24.127,-67.936 -14.412,-102.028 14.493,41.667 50.891,72.546 95.44,79.465 44.386,6.835 88.277,-11.694 114.628,-46.774 19.598,33.104 55.088,54.349 94.451,55.501 36.808,0.99 71.147,-15.81 93.049,-44.053 22.399,24.208 56.738,35.244 90.172,26.925 27.749,-6.916 49.736,-25.938 61.182,-50.396 65.301,90.253 180.34,133.238 290.931,104.662 95.524,-24.703 168.155,-97.744 194.75,-188.49 24.622,59.372 81.361,102.191 149.13,106.392 76.172,4.693 144.52,-40.762 171.449,-108.779 23.963,79.793 94.863,137.353 179.103,143.53 77.407,5.599 149.955,-33.434 188.575,-98.405 27.175,41.256 74.688,65.466 125.003,62.172 48.748,-3.295 91.486,-31.787 113.637,-73.866 28.74,26.68 68.595,38.785 107.957,31.869 36.067,-6.34 67.196,-27.752 85.889,-58.055 26.185,26.68 66.453,35.821 102.356,21.494 34.423,-13.672 56.902,-45.786 59.29,-81.36 81.936,65.384 197.88,67.854 282.45,6.505 25.856,38.704 69.995,62.007 117.263,61.101 39.855,-0.739 76.745,-18.611 101.943,-47.924 25.775,22.233 62.01,29.398 94.782,17.703 24.954,-8.893 44.549,-27.42 55.009,-50.56 6.092,15.563 8.894,32.525 7.904,49.984z"/>
   <path class="fil1" d="M2973.303 593.458c-10.46,23.14 -30.055,41.667 -55.009,50.56 -32.772,11.695 -69.007,4.53 -94.782,-17.703 -25.198,29.313 -62.088,47.185 -101.943,47.924 -47.268,0.906 -91.407,-22.397 -117.263,-61.101 -84.57,61.349 -200.514,58.879 -282.45,-6.505 -2.388,35.574 -24.867,67.688 -59.29,81.36 -35.903,14.327 -76.171,5.186 -102.356,-21.494 -18.693,30.303 -49.822,51.715 -85.889,58.055 -39.362,6.916 -79.217,-5.189 -107.957,-31.869 -22.151,42.079 -64.889,70.571 -113.637,73.866 -50.315,3.294 -97.828,-20.916 -125.003,-62.172 -38.62,64.971 -111.168,104.004 -188.575,98.405 -84.24,-6.177 -155.14,-63.737 -179.103,-143.53 -26.929,68.017 -95.277,113.472 -171.449,108.779 -67.769,-4.201 -124.508,-47.02 -149.13,-106.392 -26.595,90.746 -99.226,163.787 -194.75,188.49 -110.591,28.576 -225.63,-14.409 -290.931,-104.662 -11.446,24.458 -33.433,43.48 -61.182,50.396 -33.434,8.319 -67.773,-2.717 -90.172,-26.925 -21.902,28.243 -56.241,45.043 -93.049,44.053 -39.363,-1.152 -74.853,-22.397 -94.451,-55.501 -26.351,35.08 -70.242,53.609 -114.628,46.774 -44.549,-6.919 -80.947,-37.798 -95.44,-79.465 2.717,-9.965 6.753,-19.598 12.106,-28.821 22.233,-38.456 62.749,-62.501 106.887,-63.491 0.163,-27.339 12.35,-54.019 34.997,-72.053 28.655,-22.811 67.194,-26.186 98.65,-10.623 10.457,-16.635 27.009,-28.492 46.195,-32.939 4.283,-0.987 8.648,-1.646 13.011,-1.893 -0.988,-7.822 -1.235,-15.728 -0.74,-23.716 2.14,-34.421 18.363,-66.453 44.796,-88.523 25.198,-20.999 57.642,-31.291 90.251,-28.656 -3.128,-37.222 9.965,-74.936 37.469,-102.441 20.339,-20.422 46.279,-32.938 73.536,-36.889 37.219,-130.438 153.411,-226.044 292.494,-234.195 130.685,-7.657 250.336,63.736 307.733,176.221 32.115,-19.68 72.053,-25.032 109.439,-12.763 47.923,15.646 82.1,57.067 89.263,105.981 64.229,-28.328 137.601,-30.964 204.384,-6.177 59.619,22.15 108.862,64.148 140.236,117.92 44.057,-36.149 103.51,-50.807 161.154,-37.057 53.361,12.848 97.005,48.093 121.379,94.782 31.622,-36.397 77.405,-58.713 127.062,-60.195 44.385,-1.317 86.71,14.246 119.156,42.245 26.844,-100.629 119.896,-172.106 227.031,-168.894 103.098,3.13 188.984,74.441 213.854,170.705 36.808,-2.388 73.864,6.753 105.897,26.762 26.928,16.8 48.422,40.35 62.914,67.689 18.528,-2.717 37.797,-1.069 56.408,5.27 34.339,11.858 60.443,38.128 72.877,70.408z"/>
   <path class="fil0" d="M1281.881 610.356c11.777,16.496 25.002,28.328 39.6,36.169 14.545,7.838 30.105,11.541 45.66,11.384 15.549,-0.233 31.007,-4.267 45.369,-12.421 14.407,-8.165 27.369,-20.258 38.823,-36.997 1.979,20.354 -7.073,41.978 -22.843,57.378 -15.718,15.534 -38.254,24.841 -60.986,24.964 -22.729,0.33 -45.446,-8.471 -61.499,-23.652 -16.087,-15.054 -25.611,-36.445 -24.124,-56.825z"/>
   <path class="fil0" d="M964.749 627.244c10.424,11.629 20.649,19.078 31.197,23.905 10.507,4.801 21.017,6.851 31.523,6.76 10.5,-0.184 20.946,-2.46 31.341,-7.489 10.422,-5.06 20.482,-12.704 30.69,-24.548 3.232,15.464 -2.916,32.639 -14.708,44.929 -11.753,12.411 -29.276,19.958 -46.96,20.035 -17.68,0.266 -35.348,-6.888 -47.364,-19.032 -12.046,-12.03 -18.57,-29.04 -15.719,-44.56z"/>
   <path class="fil0" d="M445.681 663.499c20.94,25.754 43.372,45.367 68.265,58.94 24.61,13.805 51.241,21.216 78.099,23.167 26.879,1.581 54.206,-2.364 80.461,-12.693 26.368,-10.275 51.284,-26.648 75.438,-49.428 -6.001,32.925 -27.537,63.251 -56.691,83.457 -29.177,20.366 -66.202,30.365 -102.472,27.947 -36.236,-2.485 -71.656,-17.163 -97.823,-41.297 -26.288,-23.776 -43.559,-56.731 -45.277,-90.093z"/>
   <path class="fil0" d="M1821.819 625.064c24.615,22.269 49.768,38.239 76.435,47.868 26.426,9.902 53.872,13.177 80.716,11.018 26.804,-2.526 53.216,-10.581 77.595,-24.783 24.495,-14.168 46.631,-34.141 67.041,-60.328 -0.924,33.454 -17.598,66.703 -43.337,91.108 -25.74,24.567 -60.812,40.083 -97.027,43.211 -36.195,3.053 -73.436,-6.064 -102.969,-25.938 -29.597,-19.501 -51.682,-49.444 -58.454,-82.156z"/>
   <path class="fil0" d="M2494.879 560.172c17.201,16.246 35.17,28.058 54.381,35.212 19.036,7.357 38.975,9.855 58.473,8.282 19.468,-1.826 38.636,-7.797 56.159,-18.247 17.61,-10.42 33.352,-25.086 47.495,-44.061 -1.16,23.811 -13.261,47.329 -31.692,64.582 -18.431,17.362 -43.372,28.302 -69.117,30.532 -25.728,2.168 -52.196,-4.225 -73.307,-18.229 -21.155,-13.744 -37.077,-34.873 -42.392,-58.071z"/>
  </g>
 </g>
</svg>
