<?xml version="1.0" encoding="UTF-8"?>
<!DOCTYPE svg PUBLIC "-//W3C//DTD SVG 1.1//EN" "http://www.w3.org/Graphics/SVG/1.1/DTD/svg11.dtd">
<!-- Creator: CorelDRAW 2021 (64-Bit) -->
<svg xmlns="http://www.w3.org/2000/svg" xml:space="preserve" width="2250px" height="815px" version="1.1" style="shape-rendering:geometricPrecision; text-rendering:geometricPrecision; image-rendering:optimizeQuality; fill-rule:evenodd; clip-rule:evenodd"
viewBox="0 0 545.731 197.744"
 xmlns:xlink="http://www.w3.org/1999/xlink"
 xmlns:xodm="http://www.corel.com/coreldraw/odm/2003">
 <defs>
  <style type="text/css">
   <![CDATA[
    .fil0 {fill:url(#id0);fill-rule:nonzero}
   ]]>
  </style>
  <linearGradient id="id0" gradientUnits="userSpaceOnUse" x1="0" y1="98.872" x2="545.731" y2="98.872">
   <stop offset="0" style="stop-opacity:1; stop-color:#5D4F87"/>
   <stop offset="0.188235" style="stop-opacity:1; stop-color:#8176B4"/>
   <stop offset="0.568627" style="stop-opacity:1; stop-color:#AE9BEB"/>
   <stop offset="1" style="stop-opacity:1; stop-color:#564182"/>
  </linearGradient>
 </defs>
 <g id="Capa_x0020_1">
  <metadata id="CorelCorpID_0Corel-Layer"/>
  <path class="fil0" d="M407.305 22.146c-25.368,-18.53 -58.369,-25.532 -89.246,-20.627 -16.641,2.899 -32.83,10.281 -44.76,22.406 -9.621,9.372 -16.554,21.566 -19.39,34.717 -2.657,11.565 -0.141,23.861 5.728,34.049 -4.624,-4.307 -7.748,-9.871 -11.371,-14.985 -7.802,-10.702 -19.296,-18.8 -32.176,-22.08 -11.548,-2.742 -24.023,-2.727 -35.16,1.703 -8.588,3.241 -16.507,9.131 -20.697,17.464 -3.077,5.843 -3.723,13.259 -0.605,19.211 4.29,6.864 11.883,10.764 19.358,13.197 7.199,2.425 14.892,2.417 22.4,2.114 3.318,-0.343 7.073,-0.76 9.513,-3.294 1.508,-1.415 1.647,-3.832 0.607,-5.543 -2.216,-3.908 -7.54,-5.332 -11.627,-3.908 -1.758,0.575 -1.453,2.619 -1.803,4.072 -2.419,2.091 -7.09,1.351 -7.897,-2.014 -0.934,-3.597 1.967,-7.009 5.363,-7.801 6.513,-1.518 13.935,-0.32 19.071,4.157 3.763,2.828 5.59,8.307 3.241,12.605 -2.79,5.106 -8.812,7.058 -14.214,7.945 -10.943,1.374 -22.408,-0.064 -32.276,-5.17 -6.11,-3.171 -11.325,-7.81 -15.949,-12.846 -6.031,-6.171 -13.694,-11.022 -22.244,-12.669 -10.531,-2.105 -21.9,-0.49 -31.142,5.097 -4.522,2.845 -8.41,6.988 -10.212,12.079 -2.053,5.993 -0.1,13.034 4.633,17.208 6.31,5.797 15.364,7.079 23.603,6.372 -8.121,5.223 -19.431,3.497 -26.463,-2.804 -3.241,-2.76 -5.038,-6.888 -8.612,-9.304 -5.37,-4.002 -13.112,-4.795 -19.049,-1.601 -2.472,1.26 -3.91,3.815 -4.204,6.528 2.043,2.013 3.309,4.912 2.634,7.812 -5.001,35.12 -29.066,-31.986 -47.018,-23.264 -49.513,24.054 7.367,110.588 165.979,90.924 12.971,-0.42 25.951,-0.458 38.906,-1.166 37.253,-0.279 64.9,-0.029 147.117,1.166 13,0.541 237.302,24.647 160.354,-54.844 -2.487,-2.613 -6.061,-3.943 -9.598,-4.307 6.459,-4.897 10.648,-12.869 10.452,-21.04 -0.2,-7.22 -3.35,-14.128 -8.083,-19.499 -8.897,-10.329 -21.845,-16.515 -35.098,-18.964 -11.275,-1.826 -23.058,-1.67 -33.986,1.92 -7.912,2.728 -14.876,7.71 -20.728,13.624 -2.719,2.775 -5.688,5.355 -9.07,7.322 2.502,-3 5.215,-5.86 7.22,-9.24 6.148,-9.7 6.677,-22.182 3.28,-32.954 -4.904,-13.849 -15.116,-25.142 -26.781,-33.768l0 0zm-63.211 3.318l0 0c14.728,5.472 28.462,14.525 38.222,26.953 7.493,9.707 12.74,21.645 12.569,34.079 0.038,10.702 -4.322,21.522 -12.39,28.671 -8.844,8.318 -20.914,12.816 -32.952,13.377 9.202,-2.969 18.154,-7.314 25.001,-14.293 10.679,-10.167 14.992,-26.433 10.749,-40.554 -3.139,-11.23 -10.555,-20.752 -19.343,-28.189 -9.988,-8.053 -22.003,-13.764 -34.772,-15.52 -13.462,-2.038 -27.863,-0.358 -39.731,6.621 -8.588,4.827 -16.445,11.789 -20.353,21.007 -2.698,6.956 -3.165,15.101 0.147,21.939 3.162,7.549 10.126,12.769 17.563,15.685 8.271,3.1 17.411,3.497 26.067,2.107 7.158,-1.344 14.425,-4.726 18.521,-10.989 3.241,-4.734 2.41,-11.433 -1.11,-15.779 -3.615,-4.771 -9.404,-7.367 -15.156,-8.471 -7.167,-1.15 -15.007,-0.249 -21.063,4.002 -2.743,1.85 -4.469,5.379 -3.389,8.659 0.684,2.689 3.382,4.149 5.884,4.763 5.464,1.564 11.216,-0.373 16.025,-2.992 0.109,2.169 -0.488,4.392 -2.19,5.854 -3.738,3.309 -9.155,3.714 -13.897,3.015 -5.355,-0.872 -10.934,-4.143 -12.466,-9.662 -1.415,-4.936 1.112,-10.08 4.756,-13.345 5.696,-5.02 13.477,-7.149 20.97,-6.955 9.007,-0.162 18.186,3.217 24.481,9.747 4.383,4.539 6.87,11.175 5.557,17.464 -0.942,5.417 -4.275,10.18 -8.588,13.498 -5.572,4.712 -12.777,6.996 -19.865,8.2 -14.308,2.114 -30.063,-1.242 -40.794,-11.354 -6.43,-5.829 -10.485,-14.176 -10.96,-22.849 -0.567,-11.8 4.773,-23.48 13.189,-31.586 8.23,-8.556 19.454,-13.586 30.893,-16.158 12.754,-2.463 26.286,-1.758 38.425,3.054l0 0.001zm146.883 71.432l0 0c4.134,3.35 7.655,8.121 7.842,13.632 0.459,7.088 -3.801,13.647 -9.28,17.798 -6.753,4.997 -14.922,7.795 -23.192,8.961 -10.624,1.803 -21.745,1.289 -31.927,-2.395 -8.394,-2.82 -16.002,-8.362 -20.292,-16.228 0.038,-0.179 0.115,-0.528 0.156,-0.707 6.535,6.118 14.804,10.205 23.571,11.914 13.664,2.915 28.383,2.091 41.246,-3.591 4.569,-2.308 9.264,-5.323 11.556,-10.079 2.364,-4.733 0.435,-10.726 -3.558,-13.927 -5.27,-4.421 -12.35,-6.18 -19.128,-6.062 -6.302,0.07 -12.87,1.794 -17.673,6.045 -2.214,1.967 -4.04,5.317 -2.37,8.192 1.647,3.429 5.743,4.524 9.208,4.944 5.279,0.341 10.92,-0.887 14.915,-4.548 0.646,1.812 0.608,3.896 -0.754,5.379 -3.606,4.307 -9.698,5.309 -15.022,4.859 -5.613,-0.32 -11.362,-2.907 -14.448,-7.766 -2.199,-3.309 -2.061,-7.842 0.006,-11.175 3.235,-5.434 8.961,-9.063 14.986,-10.655 11.416,-3.241 24.451,-1.656 34.158,5.409l0 0z"/>
 </g>
</svg>
