<?xml version="1.0" encoding="UTF-8"?>
<!DOCTYPE svg PUBLIC "-//W3C//DTD SVG 1.1//EN" "http://www.w3.org/Graphics/SVG/1.1/DTD/svg11.dtd">
<!-- Creator: CorelDRAW 2021 (64-Bit) -->
<svg xmlns="http://www.w3.org/2000/svg" xml:space="preserve" width="1265px" height="619px" version="1.1" style="shape-rendering:geometricPrecision; text-rendering:geometricPrecision; image-rendering:optimizeQuality; fill-rule:evenodd; clip-rule:evenodd"
viewBox="0 0 512.673 250.825"
 xmlns:xlink="http://www.w3.org/1999/xlink"
 xmlns:xodm="http://www.corel.com/coreldraw/odm/2003">
 <defs>
  <style type="text/css">
   <![CDATA[
    .fil0 {fill:#DBE8EF;fill-rule:nonzero}
    .fil1 {fill:#F9FBFB;fill-rule:nonzero}
   ]]>
  </style>
 </defs>
 <g id="OBJECTS">
  <metadata id="CorelCorpID_0Corel-Layer"/>
  <g id="_1455263171216">
   <path class="fil0" d="M504.581 193.82c-8.933,10.83 -23.456,15.271 -36.93,11.379 -9.008,-2.62 -16.419,-8.658 -20.836,-16.543 -6.612,9.307 -16.368,16.194 -27.772,19.163 -13.673,3.543 -27.971,1.048 -39.45,-6.463 -4.94,8.11 -12.925,14.323 -22.682,16.843 -11.977,3.094 -24.303,0.025 -33.311,-7.486 -8.434,19.414 -25.95,34.335 -47.958,38.776 -29.046,5.889 -57.94,-8.134 -71.689,-33.36 -8.659,9.881 -21.934,15.096 -35.583,13.1 -17.092,-2.521 -30.367,-15.72 -33.262,-32.339 -11.603,6.687 -25.576,9.032 -39.225,5.939 -18.964,-4.292 -33.936,-18.266 -39.774,-36.332 -8.235,3.469 -17.517,4.168 -26.4,1.722 -14.123,-3.868 -25.028,-15.071 -28.546,-29.294 -1.173,-4.816 -1.447,-9.681 -0.874,-14.448 4.567,13.375 15.147,24.105 28.821,28.322 13.449,4.167 28.046,1.496 39.375,-6.737 9.282,12.6 23.879,20.485 39.824,21.159 16.02,0.674 31.291,-6.014 41.621,-17.866 6.413,11.329 18.24,18.889 31.64,19.688 11.753,0.673 22.906,-3.968 30.692,-12.202 11.153,16.519 28.895,27.872 49.107,30.792 22.581,3.268 45.188,-4.417 61.033,-20.312 8.184,8.933 19.114,15.096 31.291,17.417 13.225,2.52 26.799,0.249 38.377,-6.213 9.407,6.438 20.885,9.307 32.363,7.91 10.231,-1.223 19.663,-5.74 26.974,-12.726 8.084,10.58 21.359,15.82 33.711,13 12.8,-2.894 22.907,-14.023 25.202,-27.996 4.541,11.802 2.445,25.226 -5.739,35.107z"/>
   <path class="fil1" d="M510.32 158.713c-2.295,13.973 -12.402,25.102 -25.202,27.996 -12.352,2.82 -25.627,-2.42 -33.711,-13 -7.311,6.986 -16.743,11.503 -26.974,12.726 -11.478,1.397 -22.956,-1.472 -32.363,-7.91 -11.578,6.462 -25.152,8.733 -38.377,6.213 -12.177,-2.321 -23.107,-8.484 -31.291,-17.417 -15.845,15.895 -38.452,23.58 -61.033,20.312 -20.212,-2.92 -37.954,-14.273 -49.107,-30.792 -7.786,8.234 -18.939,12.875 -30.692,12.202 -13.4,-0.799 -25.227,-8.359 -31.64,-19.688 -10.33,11.852 -25.601,18.54 -41.621,17.866 -15.945,-0.674 -30.542,-8.559 -39.824,-21.159 -11.329,8.233 -25.926,10.904 -39.375,6.737 -13.674,-4.217 -24.254,-14.947 -28.821,-28.322 1.099,-9.332 5.44,-18.115 12.552,-24.728 9.482,-8.833 22.557,-12.526 35.108,-10.155 0.474,-5.016 2.345,-9.807 5.414,-13.874 4.442,-5.864 11.054,-9.706 18.366,-10.63 6.612,-0.848 13.25,0.724 18.739,4.442 5.639,-9.906 15.671,-16.919 27.448,-18.44 7.735,-0.999 15.321,0.449 21.883,3.868 12.677,-34.959 47.435,-57.816 85.413,-54.672 35.732,2.97 64.827,28.172 73.76,61.608 14.197,-2.021 28.845,2.071 40.074,11.703 10.055,8.633 16.119,20.685 17.391,33.411 12.426,-7.759 27.823,-10.031 42.37,-5.613 13.125,3.967 23.829,12.875 30.217,24.403 9.757,-7.91 22.907,-11.004 35.582,-7.66 11.255,2.969 20.337,10.529 25.453,20.361 7.985,3.044 14.771,8.983 18.814,16.918 0.548,1.073 1.022,2.17 1.447,3.294z"/>
   <path class="fil0" d="M308.359 158.273c2.552,3.301 5.281,5.586 8.227,7.09 2.933,1.502 6.004,2.191 9.074,2.161 3.069,-0.048 6.12,-0.802 9.019,-2.368 2.907,-1.569 5.585,-3.908 8.074,-7.262 0.564,4.176 -1.226,8.681 -4.442,11.894 -3.207,3.243 -7.867,5.196 -12.569,5.22 -4.7,0.068 -9.398,-1.78 -12.674,-4.951 -3.284,-3.142 -5.172,-7.601 -4.709,-11.784z"/>
   <path class="fil0" d="M100.49 134.884c-2.033,5.714 -6.417,10.544 -11.795,13.817 -5.396,3.272 -11.863,4.964 -18.291,4.795 -6.428,-0.143 -12.804,-2.16 -18.031,-5.701 -5.209,-3.538 -9.344,-8.59 -11.075,-14.407 5.059,3.284 9.799,5.764 14.68,7.437 4.856,1.682 9.755,2.558 14.679,2.697 4.924,0.123 9.865,-0.505 14.801,-1.94 4.963,-1.421 9.824,-3.665 15.032,-6.698z"/>
   <path class="fil0" d="M170.595 132.118c6.345,7.804 13.143,13.746 20.686,17.86 7.457,4.183 15.526,6.429 23.665,7.019 8.144,0.48 16.425,-0.716 24.381,-3.845 7.989,-3.114 15.539,-8.075 22.859,-14.978 -1.818,9.977 -8.345,19.167 -17.179,25.289 -8.841,6.171 -20.06,9.202 -31.05,8.469 -10.98,-0.754 -21.713,-5.201 -29.642,-12.514 -7.966,-7.204 -13.2,-17.191 -13.72,-27.3z"/>
   <path class="fil0" d="M372.859 160.803c2.961,11.237 11.124,16.808 19.277,17.087 8.155,0.263 16.645,-4.734 20.395,-15.733 2.374,5.401 1.149,12.484 -2.977,17.612 -4.052,5.212 -10.908,8.401 -17.759,8.094 -6.854,-0.169 -13.465,-3.831 -17.157,-9.293 -3.765,-5.4 -4.488,-12.538 -1.779,-17.767z"/>
  </g>
 </g>
</svg>
