<?xml version="1.0" encoding="UTF-8"?>
<!DOCTYPE svg PUBLIC "-//W3C//DTD SVG 1.1//EN" "http://www.w3.org/Graphics/SVG/1.1/DTD/svg11.dtd">
<!-- Creator: CorelDRAW 2021 (64-Bit) -->
<svg xmlns="http://www.w3.org/2000/svg" xml:space="preserve" width="1617px" height="1548px" version="1.1" style="shape-rendering:geometricPrecision; text-rendering:geometricPrecision; image-rendering:optimizeQuality; fill-rule:evenodd; clip-rule:evenodd"
viewBox="0 0 54.532 52.204"
 xmlns:xlink="http://www.w3.org/1999/xlink"
 xmlns:xodm="http://www.corel.com/coreldraw/odm/2003">
 <defs>
  <style type="text/css">
   <![CDATA[
    .fil0 {fill:#FFE9B5}
   ]]>
  </style>
 </defs>
 <g id="_23Layer_x0020_1">
  <metadata id="CorelCorpID_0Corel-Layer"/>
  <path class="fil0" d="M54.362 19.686c-0.409,-1.259 -1.498,-2.177 -2.808,-2.367l-14.627 -2.126 -6.542 -13.254c-0.586,-1.187 -1.795,-1.939 -3.119,-1.939 -1.324,0 -2.533,0.752 -3.119,1.939l-6.542 13.254 -14.627 2.126c-1.31,0.19 -2.399,1.108 -2.808,2.367 -0.409,1.26 -0.068,2.642 0.881,3.566l10.584 10.317 -2.499 14.568c-0.224,1.305 0.313,2.624 1.384,3.402 1.071,0.778 2.491,0.881 3.663,0.265l13.083 -6.878 13.083 6.878c0.509,0.268 1.064,0.4 1.618,0.4 0.721,0 1.439,-0.224 2.045,-0.665 1.071,-0.778 1.608,-2.097 1.384,-3.402l-2.499 -14.568 10.584 -10.317c0.949,-0.924 1.29,-2.307 0.881,-3.566z"/>
 </g>
</svg>
